<?xml version="1.0" encoding="UTF-8"?>
<svg version="1.1" xmlns="http://www.w3.org/2000/svg" width="360" height="360">
<path d="M0 0 C118.8 0 237.6 0 360 0 C360 118.8 360 237.6 360 360 C241.2 360 122.4 360 0 360 C0 241.2 0 122.4 0 0 Z " fill="#9C9C9C" transform="translate(0,0)"/>
<path d="M0 0 C0.68916504 0.31984863 1.37833008 0.63969727 2.08837891 0.96923828 C12.10935628 5.69870764 20.57635296 11.84746003 29 19 C29.96808594 19.80308594 30.93617188 20.60617188 31.93359375 21.43359375 C56.23391817 42.42493782 71.29728303 74.17768729 74 106 C74.7851498 119.64340022 74.3576851 132.72846017 71 146 C70.7215625 147.15113281 70.443125 148.30226562 70.15625 149.48828125 C64.15511377 172.32881269 53.2268535 191.90641507 37 209 C36.45408203 209.57959473 35.90816406 210.15918945 35.34570312 210.75634766 C33.93961945 212.21313556 32.47418165 213.61216327 31 215 C30.34 215 29.68 215 29 215 C29 215.66 29 216.32 29 217 C25.52729709 219.9219067 21.73394158 222.42470612 18 225 C17.15953125 225.59425781 16.3190625 226.18851563 15.453125 226.80078125 C-12.92181076 245.96708103 -48.27096802 251.7408268 -81.53320312 245.49609375 C-106.38816758 240.49754983 -127.30659938 229.02896293 -146 212 C-146.67675781 211.39542969 -147.35351562 210.79085937 -148.05078125 210.16796875 C-158.12932212 200.66671901 -165.46042066 189.07662882 -172 177 C-172.51820313 176.16726562 -173.03640625 175.33453125 -173.5703125 174.4765625 C-178.27247553 166.33128556 -180.46490606 156.68574115 -182.75 147.625 C-182.96060059 146.79347412 -183.17120117 145.96194824 -183.38818359 145.10522461 C-191.24594892 112.93086118 -184.39391455 78.44648417 -167.90576172 50.12011719 C-159.0661951 35.84237467 -147.40835436 23.08396898 -134 13 C-133.34 13 -132.68 13 -132 13 C-132 12.34 -132 11.68 -132 11 C-127.36509005 8.35316056 -122.71775107 5.73103633 -118.05078125 3.14111328 C-116.35165012 2.19566817 -114.65928583 1.23807352 -112.96875 0.27734375 C-106.8623207 -3.01275824 -100.61353108 -5.23480515 -94 -7.25 C-93.19336914 -7.49645264 -92.38673828 -7.74290527 -91.55566406 -7.99682617 C-61.49316445 -16.73234359 -28.11679747 -13.28406078 0 0 Z " fill="#FEFEFE" transform="translate(236,62)"/>
<path d="M0 0 C1.0236264 0.00212242 1.0236264 0.00212242 2.06793213 0.00428772 C4.23804184 0.00986541 6.4080467 0.02241371 8.578125 0.03515625 C10.05338392 0.04017414 11.52864447 0.04473654 13.00390625 0.04882812 C16.61205163 0.05897477 20.21997155 0.07855426 23.828125 0.09765625 C23.828125 8.34765625 23.828125 16.59765625 23.828125 25.09765625 C14.140625 25.53515625 14.140625 25.53515625 11.11450195 25.66577148 C10.31488037 25.70387939 9.51525879 25.7419873 8.69140625 25.78125 C7.47384644 25.83623657 7.47384644 25.83623657 6.23168945 25.89233398 C5.04192505 25.99396851 5.04192505 25.99396851 3.828125 26.09765625 C2.50204224 26.20025757 2.50204224 26.20025757 1.14916992 26.30493164 C-1.36827323 26.88209967 -1.36827323 26.88209967 -2.45849609 29.30151367 C-3.20398599 32.22351769 -3.48926998 34.8231332 -3.5859375 37.8359375 C-3.62154785 38.79798096 -3.6571582 39.76002441 -3.69384766 40.7512207 C-3.72784668 41.95866943 -3.7618457 43.16611816 -3.796875 44.41015625 C-3.9825 50.19546875 -3.9825 50.19546875 -4.171875 56.09765625 C4.738125 56.09765625 13.648125 56.09765625 22.828125 56.09765625 C21.838125 65.00765625 20.848125 73.91765625 19.828125 83.09765625 C11.908125 83.09765625 3.988125 83.09765625 -4.171875 83.09765625 C-4.171875 106.19765625 -4.171875 129.29765625 -4.171875 153.09765625 C-14.071875 153.09765625 -23.971875 153.09765625 -34.171875 153.09765625 C-33.841875 129.99765625 -33.511875 106.89765625 -33.171875 83.09765625 C-40.761875 83.09765625 -48.351875 83.09765625 -56.171875 83.09765625 C-56.171875 74.18765625 -56.171875 65.27765625 -56.171875 56.09765625 C-48.251875 56.09765625 -40.331875 56.09765625 -32.171875 56.09765625 C-32.22988281 54.07125 -32.28789062 52.04484375 -32.34765625 49.95703125 C-32.38247965 47.95120338 -32.41710371 45.94536739 -32.4465332 43.93945312 C-32.47137603 42.56620559 -32.50526387 41.1930859 -32.54907227 39.8203125 C-32.90974795 28.21079872 -31.1878505 18.9467197 -23.921875 9.66015625 C-17.09146429 2.48598308 -9.68237688 -0.03968187 0 0 Z " fill="#9A9A9A" transform="translate(196.171875,103.90234375)"/>
<path d="M0 0 C4.20584431 0.49622218 8.38318185 1.04484055 12.55859375 1.75390625 C31.27901169 4.903618 47.07419688 4.10868693 65.7043457 0.3671875 C68 0 68 0 72 0 C72 1.98 72 3.96 72 6 C69.49502996 7.25248502 67.79146726 7.11374406 64.9921875 7.09765625 C64.1038623 7.09515869 63.21553711 7.09266113 62.30029297 7.09008789 C61.16994629 7.08098389 60.03959961 7.07187988 58.875 7.0625 C53.491875 7.0315625 53.491875 7.0315625 48 7 C48 14.92 48 22.84 48 31 C40.08 31 32.16 31 24 31 C24 23.08 24 15.16 24 7 C16.84981557 7.03954567 16.84981557 7.03954567 9.69970703 7.09008789 C8.36721924 7.09383423 8.36721924 7.09383423 7.0078125 7.09765625 C5.64100342 7.10551147 5.64100342 7.10551147 4.24658203 7.11352539 C2 7 2 7 0 6 C0 4.02 0 2.04 0 0 Z " fill="#979797" transform="translate(144,305)"/>
<path d="M0 0 C1.98 0 3.96 0 6 0 C6 7.92 6 15.84 6 24 C13.92 24 21.84 24 30 24 C30 31.92 30 39.84 30 48 C22.08 48 14.16 48 6 48 C6 55.92 6 63.84 6 72 C4.35 72 2.7 72 1 72 C0.79421772 66.29525783 0.92807298 60.9287937 2 55.3125 C4.54628125 39.90658248 3.54421911 24.07188201 0.65625 8.80078125 C0.12847263 5.74407065 -0.14587376 3.08158324 0 0 Z " fill="#979797" transform="translate(306,144)"/>
<path d="M0 0 C7.92 0 15.84 0 24 0 C24 7.92 24 15.84 24 24 C21.525 24.185625 19.05 24.37125 16.5 24.5625 C15.73751953 24.62381104 14.97503906 24.68512207 14.18945312 24.74829102 C13.55974609 24.79139404 12.93003906 24.83449707 12.28125 24.87890625 C11.65283203 24.9260376 11.02441406 24.97316895 10.37695312 25.02172852 C6.90138761 24.98995722 3.44887086 24.43110886 0 24 C0 16.08 0 8.16 0 0 Z " fill="#989898" transform="translate(168,24)"/>
<path d="M0 0 C7.92 0 15.84 0 24 0 C24 7.92 24 15.84 24 24 C16.08 24 8.16 24 0 24 C0 16.08 0 8.16 0 0 Z " fill="#A3A3A3" transform="translate(312,336)"/>
<path d="M0 0 C7.92 0 15.84 0 24 0 C24 7.92 24 15.84 24 24 C16.08 24 8.16 24 0 24 C0 16.08 0 8.16 0 0 Z " fill="#989898" transform="translate(240,336)"/>
<path d="M0 0 C7.92 0 15.84 0 24 0 C24 7.92 24 15.84 24 24 C16.08 24 8.16 24 0 24 C0 16.08 0 8.16 0 0 Z " fill="#989898" transform="translate(192,336)"/>
<path d="M0 0 C7.92 0 15.84 0 24 0 C24 7.92 24 15.84 24 24 C16.08 24 8.16 24 0 24 C0 16.08 0 8.16 0 0 Z " fill="#989898" transform="translate(144,336)"/>
<path d="M0 0 C7.92 0 15.84 0 24 0 C24 7.92 24 15.84 24 24 C16.08 24 8.16 24 0 24 C0 16.08 0 8.16 0 0 Z " fill="#989898" transform="translate(96,336)"/>
<path d="M0 0 C7.92 0 15.84 0 24 0 C24 7.92 24 15.84 24 24 C16.08 24 8.16 24 0 24 C0 16.08 0 8.16 0 0 Z " fill="#989898" transform="translate(48,336)"/>
<path d="M0 0 C7.92 0 15.84 0 24 0 C24 7.92 24 15.84 24 24 C16.08 24 8.16 24 0 24 C0 16.08 0 8.16 0 0 Z " fill="#989898" transform="translate(0,336)"/>
<path d="M0 0 C7.92 0 15.84 0 24 0 C24 7.92 24 15.84 24 24 C16.08 24 8.16 24 0 24 C0 16.08 0 8.16 0 0 Z " fill="#A3A3A3" transform="translate(336,312)"/>
<path d="M0 0 C7.92 0 15.84 0 24 0 C24 7.92 24 15.84 24 24 C16.08 24 8.16 24 0 24 C0 16.08 0 8.16 0 0 Z " fill="#A3A3A3" transform="translate(288,312)"/>
<path d="M0 0 C7.92 0 15.84 0 24 0 C24 7.92 24 15.84 24 24 C16.08 24 8.16 24 0 24 C0 16.08 0 8.16 0 0 Z " fill="#989898" transform="translate(216,312)"/>
<path d="M0 0 C7.92 0 15.84 0 24 0 C24 7.92 24 15.84 24 24 C16.08 24 8.16 24 0 24 C0 16.08 0 8.16 0 0 Z " fill="#989898" transform="translate(120,312)"/>
<path d="M0 0 C7.92 0 15.84 0 24 0 C24 7.92 24 15.84 24 24 C16.08 24 8.16 24 0 24 C0 16.08 0 8.16 0 0 Z " fill="#989898" transform="translate(72,312)"/>
<path d="M0 0 C7.92 0 15.84 0 24 0 C24 7.92 24 15.84 24 24 C16.08 24 8.16 24 0 24 C0 16.08 0 8.16 0 0 Z " fill="#989898" transform="translate(24,312)"/>
<path d="M0 0 C7.92 0 15.84 0 24 0 C24 7.92 24 15.84 24 24 C16.08 24 8.16 24 0 24 C0 16.08 0 8.16 0 0 Z " fill="#989898" transform="translate(336,288)"/>
<path d="M0 0 C7.92 0 15.84 0 24 0 C24 7.92 24 15.84 24 24 C16.08 24 8.16 24 0 24 C0 16.08 0 8.16 0 0 Z " fill="#A3A3A3" transform="translate(312,288)"/>
<path d="M0 0 C7.92 0 15.84 0 24 0 C24 7.92 24 15.84 24 24 C16.08 24 8.16 24 0 24 C0 16.08 0 8.16 0 0 Z " fill="#A3A3A3" transform="translate(264,288)"/>
<path d="M0 0 C7.92 0 15.84 0 24 0 C24 7.92 24 15.84 24 24 C16.08 24 8.16 24 0 24 C0 16.08 0 8.16 0 0 Z " fill="#989898" transform="translate(48,288)"/>
<path d="M0 0 C7.92 0 15.84 0 24 0 C24 7.92 24 15.84 24 24 C16.08 24 8.16 24 0 24 C0 16.08 0 8.16 0 0 Z " fill="#989898" transform="translate(0,288)"/>
<path d="M0 0 C7.92 0 15.84 0 24 0 C24 7.92 24 15.84 24 24 C16.08 24 8.16 24 0 24 C0 16.08 0 8.16 0 0 Z " fill="#A3A3A3" transform="translate(336,264)"/>
<path d="M0 0 C7.92 0 15.84 0 24 0 C24 7.92 24 15.84 24 24 C16.08 24 8.16 24 0 24 C0 16.08 0 8.16 0 0 Z " fill="#A3A3A3" transform="translate(288,264)"/>
<path d="M0 0 C7.92 0 15.84 0 24 0 C24 7.92 24 15.84 24 24 C16.08 24 8.16 24 0 24 C0 16.08 0 8.16 0 0 Z " fill="#989898" transform="translate(24,264)"/>
<path d="M0 0 C7.92 0 15.84 0 24 0 C24 7.92 24 15.84 24 24 C16.08 24 8.16 24 0 24 C0 16.08 0 8.16 0 0 Z " fill="#A3A3A3" transform="translate(312,240)"/>
<path d="M0 0 C7.92 0 15.84 0 24 0 C24 7.92 24 15.84 24 24 C16.08 24 8.16 24 0 24 C0 16.08 0 8.16 0 0 Z " fill="#989898" transform="translate(0,240)"/>
<path d="M0 0 C7.92 0 15.84 0 24 0 C24 7.92 24 15.84 24 24 C16.08 24 8.16 24 0 24 C0 16.08 0 8.16 0 0 Z " fill="#A3A3A3" transform="translate(312,192)"/>
<path d="M0 0 C7.92 0 15.84 0 24 0 C24 7.92 24 15.84 24 24 C16.08 24 8.16 24 0 24 C0 16.08 0 8.16 0 0 Z " fill="#989898" transform="translate(0,192)"/>
<path d="M0 0 C7.92 0 15.84 0 24 0 C24 7.92 24 15.84 24 24 C16.08 24 8.16 24 0 24 C0 16.08 0 8.16 0 0 Z " fill="#A3A3A3" transform="translate(336,168)"/>
<path d="M0 0 C7.92 0 15.84 0 24 0 C24 7.92 24 15.84 24 24 C16.08 24 8.16 24 0 24 C0 16.08 0 8.16 0 0 Z " fill="#A3A3A3" transform="translate(312,144)"/>
<path d="M0 0 C7.92 0 15.84 0 24 0 C24 7.92 24 15.84 24 24 C16.08 24 8.16 24 0 24 C0 16.08 0 8.16 0 0 Z " fill="#989898" transform="translate(0,144)"/>
<path d="M0 0 C7.92 0 15.84 0 24 0 C24 7.92 24 15.84 24 24 C16.08 24 8.16 24 0 24 C0 16.08 0 8.16 0 0 Z " fill="#989898" transform="translate(336,96)"/>
<path d="M0 0 C7.92 0 15.84 0 24 0 C24 7.92 24 15.84 24 24 C16.08 24 8.16 24 0 24 C0 16.08 0 8.16 0 0 Z " fill="#A3A3A3" transform="translate(24,96)"/>
<path d="M0 0 C7.92 0 15.84 0 24 0 C24 7.92 24 15.84 24 24 C16.08 24 8.16 24 0 24 C0 16.08 0 8.16 0 0 Z " fill="#989898" transform="translate(0,96)"/>
<path d="M0 0 C7.92 0 15.84 0 24 0 C24 7.92 24 15.84 24 24 C16.08 24 8.16 24 0 24 C0 16.08 0 8.16 0 0 Z " fill="#A3A3A3" transform="translate(336,72)"/>
<path d="M0 0 C7.92 0 15.84 0 24 0 C24 7.92 24 15.84 24 24 C16.08 24 8.16 24 0 24 C0 16.08 0 8.16 0 0 Z " fill="#989898" transform="translate(312,72)"/>
<path d="M0 0 C7.92 0 15.84 0 24 0 C24 7.92 24 15.84 24 24 C16.08 24 8.16 24 0 24 C0 16.08 0 8.16 0 0 Z " fill="#A3A3A3" transform="translate(288,72)"/>
<path d="M0 0 C7.92 0 15.84 0 24 0 C24 7.92 24 15.84 24 24 C16.08 24 8.16 24 0 24 C0 16.08 0 8.16 0 0 Z " fill="#A3A3A3" transform="translate(48,72)"/>
<path d="M0 0 C7.92 0 15.84 0 24 0 C24 7.92 24 15.84 24 24 C16.08 24 8.16 24 0 24 C0 16.08 0 8.16 0 0 Z " fill="#A3A3A3" transform="translate(0,72)"/>
<path d="M0 0 C7.92 0 15.84 0 24 0 C24 7.92 24 15.84 24 24 C16.08 24 8.16 24 0 24 C0 16.08 0 8.16 0 0 Z " fill="#A3A3A3" transform="translate(312,48)"/>
<path d="M0 0 C7.92 0 15.84 0 24 0 C24 7.92 24 15.84 24 24 C16.08 24 8.16 24 0 24 C0 16.08 0 8.16 0 0 Z " fill="#A3A3A3" transform="translate(264,48)"/>
<path d="M0 0 C7.92 0 15.84 0 24 0 C24 7.92 24 15.84 24 24 C16.08 24 8.16 24 0 24 C0 16.08 0 8.16 0 0 Z " fill="#A3A3A3" transform="translate(72,48)"/>
<path d="M0 0 C7.92 0 15.84 0 24 0 C24 7.92 24 15.84 24 24 C16.08 24 8.16 24 0 24 C0 16.08 0 8.16 0 0 Z " fill="#A3A3A3" transform="translate(24,48)"/>
<path d="M0 0 C7.92 0 15.84 0 24 0 C24 7.92 24 15.84 24 24 C16.08 24 8.16 24 0 24 C0 16.08 0 8.16 0 0 Z " fill="#A3A3A3" transform="translate(336,24)"/>
<path d="M0 0 C7.92 0 15.84 0 24 0 C24 7.92 24 15.84 24 24 C16.08 24 8.16 24 0 24 C0 16.08 0 8.16 0 0 Z " fill="#A3A3A3" transform="translate(288,24)"/>
<path d="M0 0 C7.92 0 15.84 0 24 0 C24 7.92 24 15.84 24 24 C16.08 24 8.16 24 0 24 C0 16.08 0 8.16 0 0 Z " fill="#A3A3A3" transform="translate(240,24)"/>
<path d="M0 0 C7.92 0 15.84 0 24 0 C24 7.92 24 15.84 24 24 C16.08 24 8.16 24 0 24 C0 16.08 0 8.16 0 0 Z " fill="#A3A3A3" transform="translate(96,24)"/>
<path d="M0 0 C7.92 0 15.84 0 24 0 C24 7.92 24 15.84 24 24 C16.08 24 8.16 24 0 24 C0 16.08 0 8.16 0 0 Z " fill="#A3A3A3" transform="translate(48,24)"/>
<path d="M0 0 C7.92 0 15.84 0 24 0 C24 7.92 24 15.84 24 24 C16.08 24 8.16 24 0 24 C0 16.08 0 8.16 0 0 Z " fill="#A3A3A3" transform="translate(0,24)"/>
<path d="M0 0 C7.92 0 15.84 0 24 0 C24 7.92 24 15.84 24 24 C16.08 24 8.16 24 0 24 C0 16.08 0 8.16 0 0 Z " fill="#A3A3A3" transform="translate(312,0)"/>
<path d="M0 0 C7.92 0 15.84 0 24 0 C24 7.92 24 15.84 24 24 C16.08 24 8.16 24 0 24 C0 16.08 0 8.16 0 0 Z " fill="#A3A3A3" transform="translate(264,0)"/>
<path d="M0 0 C7.92 0 15.84 0 24 0 C24 7.92 24 15.84 24 24 C16.08 24 8.16 24 0 24 C0 16.08 0 8.16 0 0 Z " fill="#A3A3A3" transform="translate(216,0)"/>
<path d="M0 0 C7.92 0 15.84 0 24 0 C24 7.92 24 15.84 24 24 C16.08 24 8.16 24 0 24 C0 16.08 0 8.16 0 0 Z " fill="#A3A3A3" transform="translate(168,0)"/>
<path d="M0 0 C7.92 0 15.84 0 24 0 C24 7.92 24 15.84 24 24 C16.08 24 8.16 24 0 24 C0 16.08 0 8.16 0 0 Z " fill="#A3A3A3" transform="translate(120,0)"/>
<path d="M0 0 C7.92 0 15.84 0 24 0 C24 7.92 24 15.84 24 24 C16.08 24 8.16 24 0 24 C0 16.08 0 8.16 0 0 Z " fill="#A3A3A3" transform="translate(72,0)"/>
<path d="M0 0 C7.92 0 15.84 0 24 0 C24 7.92 24 15.84 24 24 C16.08 24 8.16 24 0 24 C0 16.08 0 8.16 0 0 Z " fill="#989898" transform="translate(48,0)"/>
<path d="M0 0 C7.92 0 15.84 0 24 0 C24 7.92 24 15.84 24 24 C16.08 24 8.16 24 0 24 C0 16.08 0 8.16 0 0 Z " fill="#989898" transform="translate(0,0)"/>
<path d="M0 0 C7.59 0 15.18 0 23 0 C24.125 9 24.125 9 24.09765625 12.28125 C24.09515869 12.91095703 24.09266113 13.54066406 24.09008789 14.18945312 C24.08098389 14.95193359 24.07187988 15.71441406 24.0625 16.5 C24.041875 18.975 24.02125 21.45 24 24 C16.08 24 8.16 24 0 24 C0 16.08 0 8.16 0 0 Z " fill="#A2A2A2" transform="translate(168,192)"/>
<path d="M0 0 C7.92 0 15.84 0 24 0 C24 7.92 24 15.84 24 24 C23.01 24 22.02 24 21 24 C20.67 22.68 20.34 21.36 20 20 C20 42.44 20 64.88 20 88 C29.24 88 38.48 88 48 88 C48 88.33 48 88.66 48 89 C38.1 89 28.2 89 18 89 C18 65.24 18 41.48 18 17 C12.06 17 6.12 17 0 17 C0 11.39 0 5.78 0 0 Z " fill="#A9A9A9" transform="translate(144,168)"/>
<path d="M0 0 C7.92 0 15.84 0 24 0 C25.28571429 12.71428571 25.28571429 12.71428571 24 19 C23.34 18.34 22.68 17.68 22 17 C19.66222593 17.30061265 17.32942388 17.6403614 15 18 C9.9784807 17.8466334 5.01088885 17.39909734 0 17 C0 11.39 0 5.78 0 0 Z " fill="#A3A3A3" transform="translate(192,168)"/>
<path d="M0 0 C0.33 0 0.66 0 1 0 C1 2.64 1 5.28 1 8 C1.99 8 2.98 8 4 8 C4 15.92 4 23.84 4 32 C-3.92 32 -11.84 32 -20 32 C-20 37.61 -20 43.22 -20 49 C-14.06 49 -8.12 49 -2 49 C-2 49.66 -2 50.32 -2 51 C-9.26 51 -16.52 51 -24 51 C-24 42.09 -24 33.18 -24 24 C-16.08 24 -8.16 24 0 24 C0 16.08 0 8.16 0 0 Z " fill="#959595" transform="translate(164,136)"/>
<path d="M0 0 C7.59 0 15.18 0 23 0 C23.09765625 10.83984375 23.09765625 10.83984375 23 14 C22 15 22 15 19.86694336 15.11352539 C18.95050049 15.10828857 18.03405762 15.10305176 17.08984375 15.09765625 C16.10048828 15.09443359 15.11113281 15.09121094 14.09179688 15.08789062 C13.05087891 15.07951172 12.00996094 15.07113281 10.9375 15.0625 C9.89271484 15.05798828 8.84792969 15.05347656 7.77148438 15.04882812 C5.18096546 15.03699927 2.59047578 15.01906319 0 15 C0 10.05 0 5.1 0 0 Z " fill="#A3A3A3" transform="translate(168,240)"/>
<path d="M0 0 C0.33 0 0.66 0 1 0 C1 2.64 1 5.28 1 8 C2.65 8 4.3 8 6 8 C6 15.92 6 23.84 6 32 C-7.75 32.125 -7.75 32.125 -10 31 C-8.55271886 26.57775206 -7.06851677 22.17369564 -5.5 17.79296875 C-5.2333252 17.046521 -4.96665039 16.30007324 -4.69189453 15.53100586 C-4.15414742 14.02946035 -3.61353108 12.5289388 -3.06982422 11.02954102 C-1.76141803 7.37193203 -0.62161139 3.85095838 0 0 Z " fill="#A4A4A4" transform="translate(306,208)"/>
<path d="M0 0 C2.64 0 5.28 0 8 0 C8.19335938 0.65226563 8.38671875 1.30453125 8.5859375 1.9765625 C8.84632812 2.85054687 9.10671875 3.72453125 9.375 4.625 C9.64828125 5.5428125 9.9215625 6.460625 10.203125 7.40625 C10.79372284 9.32858807 11.44382938 11.2328594 12.125 13.125 C13.22985545 16.75523933 13.60967361 20.22684486 14 24 C9.38 24 4.76 24 0 24 C0 16.08 0 8.16 0 0 Z " fill="#A3A3A3" transform="translate(48,216)"/>
<path d="M0 0 C4.95 0 9.9 0 15 0 C13.04943881 8.86618721 10.29124343 17.97378545 6 26 C6 25.34 6 24.68 6 24 C4.02 24 2.04 24 0 24 C0 16.08 0 8.16 0 0 Z " fill="#A2A2A2" transform="translate(48,120)"/>
<path d="M0 0 C4.62 0 9.24 0 14 0 C14 7.92 14 15.84 14 24 C12.02 24 10.04 24 8 24 C7.67 24.66 7.34 25.32 7 26 C6.66226562 24.90300781 6.32453125 23.80601562 5.9765625 22.67578125 C5.52614898 21.22132093 5.07562216 19.76689569 4.625 18.3125 C4.29242188 17.2306543 4.29242188 17.2306543 3.953125 16.12695312 C3.01736019 13.11323999 2.08386147 10.19502013 0.8359375 7.29296875 C0 5 0 5 0 0 Z " fill="#A2A2A2" transform="translate(298,120)"/>
<path d="M0 0 C-0.33 0.33 -0.66 0.66 -1 1 C0.32 0.67 1.64 0.34 3 0 C3 4.62 3 9.24 3 14 C-3.27 14 -9.54 14 -16 14 C-16.66 12.35 -17.32 10.7 -18 9 C-5.6875 -2.40625 -5.6875 -2.40625 0 0 Z " fill="#A4A4A4" transform="translate(189,106)"/>
<path d="M0 0 C8.91 0 17.82 0 27 0 C26.34 5.28 25.68 10.56 25 16 C24.67 16 24.34 16 24 16 C24 13.36 24 10.72 24 8 C16.08 8 8.16 8 0 8 C0 5.36 0 2.72 0 0 Z " fill="#969696" transform="translate(192,160)"/>
<path d="M0 0 C7.92 0 15.84 0 24 0 C24 0.66 24 1.32 24 2 C20.93929066 2.67507066 17.8761791 3.33854922 14.8125 4 C13.51602539 4.28617188 13.51602539 4.28617188 12.19335938 4.578125 C11.35224609 4.75859375 10.51113281 4.9390625 9.64453125 5.125 C8.87471924 5.29257812 8.10490723 5.46015625 7.31176758 5.6328125 C4.83939753 6.02550915 2.49924191 6.06185285 0 6 C0 4.02 0 2.04 0 0 Z " fill="#979797" transform="translate(144,48)"/>
<path d="M0 0 C0.99 0 1.98 0 3 0 C3 7.92 3 15.84 3 24 C2.01 24 1.02 24 0 24 C0 16.08 0 8.16 0 0 Z " fill="#979797" transform="translate(165,192)"/>
<path d="M0 0 C7.92 0 15.84 0 24 0 C24 0.99 24 1.98 24 3 C16.08 3 8.16 3 0 3 C0 2.01 0 1.02 0 0 Z " fill="#9F9F9F" transform="translate(168,309)"/>
<path d="M0 0 C0 2.97 0 5.94 0 9 C-3.96 9 -7.92 9 -12 9 C-10.948125 8.1646875 -10.948125 8.1646875 -9.875 7.3125 C-7.80698891 5.64909978 -5.77346534 3.9655467 -3.75 2.25 C-1 0 -1 0 0 0 Z " fill="#A3A3A3" transform="translate(264,279)"/>
<path d="M0 0 C0.33 0 0.66 0 1 0 C1 3.63 1 7.26 1 11 C-1.97 11 -4.94 11 -8 11 C-7.59007812 10.45730469 -7.18015625 9.91460937 -6.7578125 9.35546875 C-6.21898437 8.64003906 -5.68015625 7.92460937 -5.125 7.1875 C-4.59132813 6.47980469 -4.05765625 5.77210938 -3.5078125 5.04296875 C-2.29185219 3.39543703 -1.13583859 1.70375789 0 0 Z " fill="#A2A2A2" transform="translate(287,253)"/>
<path d="M0 0 C2.96404505 2.80804268 5.44499019 5.18315774 7 9 C6 10 6 10 2.4375 10.0625 C1.303125 10.041875 0.16875 10.02125 -1 10 C-1.02689216 8.52093108 -1.04634621 7.04172517 -1.0625 5.5625 C-1.07410156 4.73878906 -1.08570312 3.91507812 -1.09765625 3.06640625 C-1 1 -1 1 0 0 Z " fill="#A2A2A2" transform="translate(73,254)"/>
<path d="M0 0 C1.31896465 0.92838287 2.62998689 1.86805732 3.9375 2.8125 C4.66839844 3.33457031 5.39929688 3.85664063 6.15234375 4.39453125 C8 6 8 6 9 9 C6.03 9 3.06 9 0 9 C0 6.03 0 3.06 0 0 Z " fill="#9E9E9E" transform="translate(96,279)"/>
<path d="M0 0 C0.99 0 1.98 0 3 0 C3 4.95 3 9.9 3 15 C2.01 15 1.02 15 0 15 C0 10.05 0 5.1 0 0 Z " fill="#979797" transform="translate(165,240)"/>
<path d="M0 0 C2.64 0 5.28 0 8 0 C8 1.98 8 3.96 8 6 C6.02 6 4.04 6 2 6 C2 5.34 2 4.68 2 4 C1.01 3.67 0.02 3.34 -1 3 C-0.67 2.01 -0.34 1.02 0 0 Z " fill="#979797" transform="translate(208,48)"/>
<path d="M0 0 C2.64 0 5.28 0 8 0 C8 2.64 8 5.28 8 8 C7.01 8 6.02 8 5 8 C3.61328125 6.25 3.61328125 6.25 2.3125 4 C1.87550781 3.2575 1.43851562 2.515 0.98828125 1.75 C0.66214844 1.1725 0.33601563 0.595 0 0 Z " fill="#A2A2A2" transform="translate(280,96)"/>
<path d="M0 0 C0.66 0.66 1.32 1.32 2 2 C2.66 1.34 3.32 0.68 4 0 C4 4.62 4 9.24 4 14 C3.01 14 2.02 14 1 14 C0.67 9.38 0.34 4.76 0 0 Z " fill="#A7A7A7" transform="translate(164,130)"/>
<path d="M0 0 C1.98 0 3.96 0 6 0 C5.5206753 4.31392226 4.2542015 6.16569547 1 9 C0 8 0 8 -0.09765625 6.15234375 C-0.06510417 4.1015625 -0.03255208 2.05078125 0 0 Z " fill="#A2A2A2" transform="translate(72,96)"/>
<path d="M0 0 C1.77007714 -0.08114106 3.54122098 -0.13925505 5.3125 -0.1875 C6.29863281 -0.22230469 7.28476563 -0.25710937 8.30078125 -0.29296875 C11 0 11 0 14 3 C9.38 3 4.76 3 0 3 C0 2.01 0 1.02 0 0 Z " fill="#989898" transform="translate(192,48)"/>
<path d="M0 0 C1.32 0 2.64 0 4 0 C4 2.97 4 5.94 4 9 C2.68 9 1.36 9 0 9 C0 6.03 0 3.06 0 0 Z " fill="#929292" transform="translate(216,120)"/>
<path d="M0 0 C1.32 0 2.64 0 4 0 C4 2.64 4 5.28 4 8 C2.68 8 1.36 8 0 8 C0 5.36 0 2.72 0 0 Z " fill="#9D9D9D" transform="translate(140,160)"/>
<path d="M0 0 C1.98 0 3.96 0 6 0 C5.6875 2.375 5.6875 2.375 5 5 C4.01 5.66 3.02 6.32 2 7 C0 4 0 4 0 0 Z " fill="#A5A5A5" transform="translate(96,72)"/>
<path d="M0 0 C0.99 0.33 1.98 0.66 3 1 C3 2.32 3 3.64 3 5 C2.34 5 1.68 5 1 5 C0.67 5.66 0.34 6.32 0 7 C-1.65 5.35 -3.3 3.7 -5 2 C-3.68 2 -2.36 2 -1 2 C-0.67 1.34 -0.34 0.68 0 0 Z " fill="#ABABAB" transform="translate(261,72)"/>
<path d="M0 0 C0 0.66 0 1.32 0 2 C-2.99480917 2.8723412 -5.63575911 3.10829766 -8.75 3.0625 C-9.54921875 3.05347656 -10.3484375 3.04445312 -11.171875 3.03515625 C-11.77515625 3.02355469 -12.3784375 3.01195312 -13 3 C-8.24109471 0.62054735 -5.45161235 -0.10095578 0 0 Z " fill="#909090" transform="translate(168,48)"/>
<path d="M0 0 C0.33 1.32 0.66 2.64 1 4 C2.32 4.33 3.64 4.66 5 5 C5 5.33 5 5.66 5 6 C2.03 6 -0.94 6 -4 6 C-2.68 4.02 -1.36 2.04 0 0 Z " fill="#A9A9A9" transform="translate(283,258)"/>
<path d="M0 0 C2.0245738 1.93254772 3.42105792 3.63158688 5 6 C3.02 6 1.04 6 -1 6 C-1.042721 4.33388095 -1.04063832 2.66617115 -1 1 C-0.67 0.67 -0.34 0.34 0 0 Z " fill="#A8A8A8" transform="translate(73,258)"/>
<path d="M0 0 C6.75 0.75 6.75 0.75 9 3 C6.03 3 3.06 3 0 3 C0 2.01 0 1.02 0 0 Z " fill="#A6A6A6" transform="translate(96,285)"/>
<path d="M0 0 C0 0.99 0 1.98 0 3 C-2.64 3 -5.28 3 -8 3 C-8 2.34 -8 1.68 -8 1 C-5.23735711 0.40267181 -2.83967231 0 0 0 Z " fill="#939393" transform="translate(168,309)"/>
<path d="M0 0 C1.46015291 0.28241641 2.91809793 0.57626614 4.375 0.875 C5.18710938 1.03742188 5.99921875 1.19984375 6.8359375 1.3671875 C9 2 9 2 11 4 C6.35108046 4.32434322 3.77593392 3.776422 0 1 C0 0.67 0 0.34 0 0 Z " fill="#9A9A9A" transform="translate(131,301)"/>
</svg>
