<?xml version="1.0" encoding="UTF-8"?>
<svg version="1.1" xmlns="http://www.w3.org/2000/svg" width="225" height="225">
<path d="M0 0 C74.25 0 148.5 0 225 0 C225 74.25 225 148.5 225 225 C150.75 225 76.5 225 0 225 C0 150.75 0 76.5 0 0 Z " fill="#9D9D9D" transform="translate(0,0)"/>
<path d="M0 0 C1.463445 0.00104069 2.92689281 -0.00000815 4.39033508 -0.00302124 C7.43554223 -0.00284323 10.47967452 0.01771985 13.5246582 0.05419922 C17.40479268 0.09969425 21.28337086 0.10062558 25.16369915 0.08716393 C28.17775533 0.08044681 31.19146392 0.09381203 34.20545387 0.11342239 C35.63540638 0.12105322 37.06539777 0.12345361 38.49536705 0.1202507 C49.31527045 0.11619484 57.90053385 1.41541347 65.99743652 9.0042572 C72.51168735 16.52987573 72.08010298 25.72395964 72.01953125 35.12890625 C72.02223216 36.61666619 72.02611954 38.10442439 72.03112793 39.59217834 C72.03699679 42.69793642 72.02854674 45.80323166 72.00976562 48.90893555 C71.9869969 52.86408647 72.00010153 56.81815009 72.02405548 60.77326107 C72.03860205 63.84220879 72.033867 66.91090443 72.02354431 69.97986031 C72.02090034 71.43691707 72.02406353 72.89399769 72.03346252 74.35102654 C72.0810993 83.80998526 71.64838943 92.471689 65.55859375 100.1640625 C64.59566406 100.9375 64.59566406 100.9375 63.61328125 101.7265625 C62.97648437 102.2628125 62.3396875 102.7990625 61.68359375 103.3515625 C56.78308784 106.42091851 52.05202073 106.98587923 46.35644531 107.04882812 C45.32583984 107.06372284 45.32583984 107.06372284 44.27441406 107.07891846 C42.01753626 107.10795534 39.7609396 107.1217309 37.50390625 107.1328125 C36.7275457 107.13846725 35.95118515 107.14412201 35.15129852 107.14994812 C31.04193275 107.17985119 26.93270591 107.1983603 22.82324219 107.20703125 C18.60213599 107.21798357 14.38232568 107.26602134 10.16162491 107.32297516 C6.89455582 107.36042893 3.62779258 107.37064961 0.36052704 107.373703 C-1.1942884 107.37971313 -2.74910124 107.39562391 -4.30370331 107.42207336 C-13.55241781 107.56818636 -21.21549491 107.17870557 -28.51171875 100.7265625 C-33.52029647 94.5641867 -35.74866292 88.08610264 -35.80224609 80.12963867 C-35.8150058 78.83777145 -35.8277655 77.54590424 -35.84091187 76.21488953 C-35.84397011 74.8164383 -35.84619755 73.41798506 -35.84765625 72.01953125 C-35.85409203 70.56992972 -35.86082096 69.12032947 -35.86782837 67.67073059 C-35.87977509 64.63714591 -35.88351194 61.60367488 -35.88232422 58.57006836 C-35.88212129 54.70336382 -35.90940718 50.83739638 -35.94386864 46.9708662 C-35.96622592 43.97749049 -35.97015907 40.98428962 -35.96910477 37.990839 C-35.97144809 36.56642432 -35.98019933 35.14200386 -35.9957695 33.71767235 C-36.10459549 22.73355042 -34.93176168 15.0649974 -27.51171875 6.7265625 C-18.87356412 0.51888097 -10.32803291 -0.14723589 0 0 Z " fill="#9D9D9D" transform="translate(96.51171875,60.2734375)"/>
<path d="M0 0 C1.463445 0.00104069 2.92689281 -0.00000815 4.39033508 -0.00302124 C7.43554223 -0.00284323 10.47967452 0.01771985 13.5246582 0.05419922 C17.40479268 0.09969425 21.28337086 0.10062558 25.16369915 0.08716393 C28.17775533 0.08044681 31.19146392 0.09381203 34.20545387 0.11342239 C35.63540638 0.12105322 37.06539777 0.12345361 38.49536705 0.1202507 C49.31527045 0.11619484 57.90053385 1.41541347 65.99743652 9.0042572 C72.51168735 16.52987573 72.08010298 25.72395964 72.01953125 35.12890625 C72.02223216 36.61666619 72.02611954 38.10442439 72.03112793 39.59217834 C72.03699679 42.69793642 72.02854674 45.80323166 72.00976562 48.90893555 C71.9869969 52.86408647 72.00010153 56.81815009 72.02405548 60.77326107 C72.03860205 63.84220879 72.033867 66.91090443 72.02354431 69.97986031 C72.02090034 71.43691707 72.02406353 72.89399769 72.03346252 74.35102654 C72.0810993 83.80998526 71.64838943 92.471689 65.55859375 100.1640625 C64.59566406 100.9375 64.59566406 100.9375 63.61328125 101.7265625 C62.97648437 102.2628125 62.3396875 102.7990625 61.68359375 103.3515625 C56.78308784 106.42091851 52.05202073 106.98587923 46.35644531 107.04882812 C45.32583984 107.06372284 45.32583984 107.06372284 44.27441406 107.07891846 C42.01753626 107.10795534 39.7609396 107.1217309 37.50390625 107.1328125 C36.7275457 107.13846725 35.95118515 107.14412201 35.15129852 107.14994812 C31.04193275 107.17985119 26.93270591 107.1983603 22.82324219 107.20703125 C18.60213599 107.21798357 14.38232568 107.26602134 10.16162491 107.32297516 C6.89455582 107.36042893 3.62779258 107.37064961 0.36052704 107.373703 C-1.1942884 107.37971313 -2.74910124 107.39562391 -4.30370331 107.42207336 C-13.55241781 107.56818636 -21.21549491 107.17870557 -28.51171875 100.7265625 C-33.52029647 94.5641867 -35.74866292 88.08610264 -35.80224609 80.12963867 C-35.8150058 78.83777145 -35.8277655 77.54590424 -35.84091187 76.21488953 C-35.84397011 74.8164383 -35.84619755 73.41798506 -35.84765625 72.01953125 C-35.85409203 70.56992972 -35.86082096 69.12032947 -35.86782837 67.67073059 C-35.87977509 64.63714591 -35.88351194 61.60367488 -35.88232422 58.57006836 C-35.88212129 54.70336382 -35.90940718 50.83739638 -35.94386864 46.9708662 C-35.96622592 43.97749049 -35.97015907 40.98428962 -35.96910477 37.990839 C-35.97144809 36.56642432 -35.98019933 35.14200386 -35.9957695 33.71767235 C-36.10459549 22.73355042 -34.93176168 15.0649974 -27.51171875 6.7265625 C-18.87356412 0.51888097 -10.32803291 -0.14723589 0 0 Z M-23.53219604 18.58349609 C-25.91001652 23.78585348 -25.19838768 29.9253528 -25.140625 35.5390625 C-25.14145455 36.99585141 -25.14391719 38.45264022 -25.14793396 39.90942383 C-25.15078577 42.95585456 -25.13615289 46.00154756 -25.10864258 49.04785156 C-25.07455948 52.94187042 -25.08058311 56.83457097 -25.09930515 60.72865295 C-25.10990209 63.73485188 -25.10091319 66.740747 -25.08592033 69.74691772 C-25.08075773 71.18215023 -25.0811969 72.61741472 -25.08746529 74.05264282 C-25.09294902 76.06248094 -25.06961857 78.0723344 -25.04516602 80.08203125 C-25.03896744 81.22309326 -25.03276886 82.36415527 -25.02638245 83.53979492 C-24.22791946 88.48383116 -21.36484644 92.54354397 -17.51171875 95.7265625 C-14.20869402 96.82757074 -11.7030718 96.88034324 -8.22363281 96.91943359 C-6.92508362 96.93549652 -5.62653442 96.95155945 -4.28863525 96.96810913 C-2.86821143 96.97959753 -1.44778026 96.99020591 -0.02734375 97 C1.04764751 97.00798552 1.04764751 97.00798552 2.14435577 97.01613235 C5.93899973 97.04283948 9.73361109 97.06222059 13.52832031 97.07666016 C16.66143054 97.08998839 19.79388775 97.1178222 22.92675781 97.15869141 C26.71691397 97.20812898 30.50647887 97.23279452 34.29694366 97.23988724 C35.73700671 97.24658068 37.17705755 97.26175318 38.61693573 97.28577805 C47.63523096 97.65844685 47.63523096 97.65844685 55.80175781 94.44384766 C60.1087394 90.08754949 60.73881882 87.31923818 60.77880859 81.21728516 C60.78552582 80.57284958 60.79224304 79.928414 60.79916382 79.26445007 C60.81811943 77.13976269 60.82206674 75.01539162 60.82421875 72.890625 C60.83064854 71.40855786 60.83737703 69.92649198 60.84439087 68.44442749 C60.85635762 65.33922382 60.86007234 62.23413135 60.85888672 59.12890625 C60.85868359 55.15872477 60.88598083 51.18925963 60.92043114 47.21924782 C60.94271899 44.15822097 60.94672369 41.09736599 60.94566727 38.03626633 C60.94802058 36.57308866 60.95682901 35.10990606 60.972332 33.64680862 C60.99203143 31.59557859 60.98614071 29.54588615 60.97412109 27.49462891 C60.97697113 26.32976959 60.97982117 25.16491028 60.98275757 23.9647522 C60.36367565 19.91055465 59.13471812 17.84690477 56.48828125 14.7265625 C52.24308506 11.95957799 48.93759531 11.34901242 43.91967773 11.33837891 C41.99254189 11.32419418 41.99254189 11.32419418 40.026474 11.3097229 C38.63743783 11.31509252 37.24840451 11.32124545 35.859375 11.328125 C34.42261101 11.3261019 32.98584802 11.32318849 31.54908752 11.31942749 C28.54572725 11.31501662 25.54263557 11.32139587 22.53930664 11.33544922 C18.69695677 11.3525562 14.85523494 11.34268307 11.01290798 11.32473183 C8.0488464 11.31387346 5.0849329 11.3173494 2.12086678 11.3251152 C0.7043354 11.32711075 -0.71220959 11.32468066 -2.12872505 11.31767654 C-4.10998388 11.31002741 -6.09129011 11.32376023 -8.07250977 11.33837891 C-9.1980275 11.34076569 -10.32354523 11.34315247 -11.48316956 11.34561157 C-16.40063758 11.96416319 -20.46781276 14.66430051 -23.53219604 18.58349609 Z " fill="#FCFCFC" transform="translate(96.51171875,60.2734375)"/>
<path d="M0 0 C6.58731679 4.69273453 12.21277523 9.89455811 14 18 C15.18213071 28.11099037 13.48596387 35.65991715 7.375 43.75 C1.67099905 49.83710549 -4.72976609 52.29239277 -13 52.625 C-21.48785798 52.28401113 -27.54161227 49.43177782 -33.875 43.875 C-38.87714364 38.42349121 -41.09689274 31.36211594 -41.625 24.0625 C-41.27066234 16.40147536 -37.31003349 8.72986523 -31.75 3.5 C-22.24001219 -3.58012309 -10.69722258 -5.6348246 0 0 Z " fill="#FCFCFC" transform="translate(128,90)"/>
<path d="M0 0 C4.35699098 2.46622131 7.04335342 5.33670683 9.3125 9.875 C9.90770744 15.47845293 10.43404174 21.08849855 7.1875 25.9375 C3.8874872 29.69584791 0.7434793 31.58473382 -4.3046875 32.1875 C-10.28469296 32.44679563 -14.07889582 32.03398426 -18.6875 27.875 C-23.1244715 22.95835591 -24.16414201 19.01223371 -24.09765625 12.515625 C-23.38756021 7.94395905 -20.96961039 5.01408264 -17.6875 1.875 C-11.92510638 -2.13362165 -6.45572201 -1.96954231 0 0 Z " fill="#9D9D9D" transform="translate(121.6875,99.125)"/>
<path d="M0 0 C1.9375 1.0625 1.9375 1.0625 3 3 C3.36528977 6.4093712 3.6140629 8.88023824 1.9375 11.9375 C-1.1652833 13.63902633 -3.53769185 13.42519574 -7 13 C-9.8520847 11.02547983 -10.81895125 9.90524375 -11.5 6.5 C-10.21591544 0.07957718 -5.93091193 -0.75484334 0 0 Z " fill="#FBFBFB" transform="translate(147,81)"/>
</svg>
