<?xml version="1.0" encoding="UTF-8"?>
<svg version="1.1" xmlns="http://www.w3.org/2000/svg" width="173" height="148">
<path d="M0 0 C57.09 0 114.18 0 173 0 C173 48.84 173 97.68 173 148 C115.91 148 58.82 148 0 148 C0 99.16 0 50.32 0 0 Z " fill="#9D9D9D" transform="translate(0,0)"/>
<path d="M0 0 C3.63 0 7.26 0 11 0 C11 37.62 11 75.24 11 114 C-26.95 114 -64.9 114 -104 114 C-104 110.37 -104 106.74 -104 103 C-107.96 103 -111.92 103 -116 103 C-116 99.37 -116 95.74 -116 92 C-112.04 92 -108.08 92 -104 92 C-104 88.04 -104 84.08 -104 80 C-107.96 80 -111.92 80 -116 80 C-116 76.37 -116 72.74 -116 69 C-112.04 69 -108.08 69 -104 69 C-104 65.04 -104 61.08 -104 57 C-107.96 57 -111.92 57 -116 57 C-116 53.37 -116 49.74 -116 46 C-111.49718269 45.31100632 -107.48422035 45.10112457 -103 46 C-100.18674557 48.37908288 -98.34590107 50.91619267 -96.22265625 53.921875 C-86.77169931 67.01037073 -69.22492919 77.9250236 -54 83 C-48.02404582 83.60772415 -44.6409547 82.87817755 -39.69921875 79.421875 C-37.37847074 77.47991575 -36.10284125 75.8260307 -35 73 C-34.72258299 69.53228738 -34.89802585 67.30592244 -36 64 C-35.72230092 61.6593935 -35.39460023 59.32375692 -35 57 C-31.37 57 -27.74 57 -24 57 C-24 53.37 -24 49.74 -24 46 C-27.63 46 -31.26 46 -35 46 C-35.02578125 45.03320312 -35.0515625 44.06640625 -35.078125 43.0703125 C-35.57144936 31.74627601 -37.48546106 23.46310645 -44.828125 14.59375 C-46 13 -46 13 -46 11 C-42.37 11 -38.74 11 -35 11 C-35 14.96 -35 18.92 -35 23 C-31.37 23 -27.74 23 -24 23 C-24 19.04 -24 15.08 -24 11 C-12.615 10.505 -12.615 10.505 -1 10 C-0.67 6.7 -0.34 3.4 0 0 Z " fill="#9A9A9A" transform="translate(162,34)"/>
<path d="M0 0 C26.73 0 53.46 0 81 0 C81 11.22 81 22.44 81 34 C77.37 34 73.74 34 70 34 C70.020625 35.629375 70.04125 37.25875 70.0625 38.9375 C70.08386068 40.62499341 70.07205511 42.31391034 70 44 C69 45 69 45 66.77514648 45.11352539 C65.81680908 45.10828857 64.85847168 45.10305176 63.87109375 45.09765625 C62.83662109 45.09443359 61.80214844 45.09121094 60.73632812 45.08789062 C59.64771484 45.07951172 58.55910156 45.07113281 57.4375 45.0625 C55.7987793 45.05573242 55.7987793 45.05573242 54.12695312 45.04882812 C51.41794568 45.0369984 48.7089662 45.01906231 46 45 C46.495 51.435 46.495 51.435 47 58 C43.04 57.67 39.08 57.34 35 57 C35 53.04 35 49.08 35 45 C31.37 45 27.74 45 24 45 C25.0725 46.44375 26.145 47.8875 27.25 49.375 C34.31810412 59.62590151 35.58998856 67.70857167 35 80 C38.63 80 42.26 80 46 80 C46.72795155 84.20594226 47.04973814 86.80104745 46 91 C42.37 91 38.74 91 35 91 C34.979375 92.464375 34.95875 93.92875 34.9375 95.4375 C34.92589844 96.26121094 34.91429688 97.08492188 34.90234375 97.93359375 C34.76732652 99.99163938 34.76732652 99.99163938 36 101 C36.73978024 105.33299856 35.83167693 107.71094936 33.375 111.1875 C29.61034509 115.78776757 26.35290162 117.62848922 20.4375 118.5625 C14.09410376 118.29668149 8.50652004 114.88131863 3 112 C1.99453125 111.48179688 0.9890625 110.96359375 -0.046875 110.4296875 C-18.33051806 100.4172163 -32.23732811 85.22601354 -42 67 C-42.55042969 65.98292969 -43.10085937 64.96585937 -43.66796875 63.91796875 C-46.39414665 58.4579766 -48.64912883 53.12368818 -47 47 C-44.50067096 42.79694828 -41.53635079 39.88071357 -37 38 C-30.48873376 37.03932137 -30.48873376 37.03932137 -27.171875 39.1796875 C-22.26058817 43.80337645 -17.67515516 49.81370369 -15 56 C-15.12109375 59.1875 -15.12109375 59.1875 -16 62 C-17.5159375 63.2065625 -17.5159375 63.2065625 -19.0625 64.4375 C-22.2420499 66.72498194 -22.2420499 66.72498194 -22.8125 70.125 C-21.11456112 78.22286234 -16.50587883 84.31268006 -9.8125 89.0625 C-4.11803805 92.87617621 -4.11803805 92.87617621 2.4375 93.9375 C6.64827101 92.82940237 8.25210722 91.31363542 11 88 C12.4472136 85.47825081 12.4472136 85.47825081 12 80 C8.04 80 4.08 80 0 80 C0 76.04 0 72.08 0 68 C3.3 68 6.6 68 10 68 C9.59995382 65.04021368 9.59995382 65.04021368 8 62 C5.44526606 60.57664824 2.81962538 59.74752859 0 59 C0.14648438 55.97265625 0.14648438 55.97265625 0.29296875 52.9453125 C0.19628906 52.30335937 0.09960938 51.66140625 0 51 C-0.99 50.34 -1.98 49.68 -3 49 C-2.67 47.68 -2.34 46.36 -2 45 C5.48610221 44.18629324 11.20578021 47.07809616 17.08984375 51.609375 C21.43561455 55.61520179 23.3939464 59.33157553 25 65 C25 65.99 25 66.98 25 68 C26.32 68 27.64 68 29 68 C27.09646269 59.50729506 24.38252159 52.7082875 17.5625 46.9375 C12.58844225 43.80333606 6.60503771 42.57163588 1 41 C0.20851562 40.77054688 -0.58296875 40.54109375 -1.3984375 40.3046875 C-2.92974846 39.86091983 -4.46436088 39.42855045 -6 39 C-6 38.01 -6 37.02 -6 36 C5.85171864 34.96775354 13.5654143 37.92406072 23 45 C23 37.41 23 29.82 23 22 C19.37 22 15.74 22 12 22 C12 18.37 12 14.74 12 11 C8.04 11 4.08 11 0 11 C0 7.37 0 3.74 0 0 Z " fill="#9B9B9B" transform="translate(92,0)"/>
<path d="M0 0 C6.0411164 3.89832725 11.19410279 11.51136271 14 18 C13.87890625 21.1875 13.87890625 21.1875 13 24 C11.4840625 25.2065625 11.4840625 25.2065625 9.9375 26.4375 C6.7579501 28.72498194 6.7579501 28.72498194 6.1875 32.125 C7.88543888 40.22286234 12.49412117 46.31268006 19.1875 51.0625 C24.88196195 54.87617621 24.88196195 54.87617621 31.4375 55.9375 C35.146879 55.29484488 35.146879 55.29484488 37.4375 52.4375 C40 50 40 50 43.5 49.125 C50.80802414 49.54339833 58.14469581 56.41979156 63.3515625 61.125 C65 63 65 63 65.625 65.75 C64.49882038 71.60613402 60.95023908 75.64331194 56.125 79 C47.92238913 81.62483548 42.85681524 79.4719822 35.359375 75.7578125 C34.25078125 75.17773438 33.1421875 74.59765625 32 74 C30.99453125 73.48179688 29.9890625 72.96359375 28.953125 72.4296875 C10.66948194 62.4172163 -3.23732811 47.22601354 -13 29 C-13.55042969 27.98292969 -14.10085937 26.96585938 -14.66796875 25.91796875 C-17.39414665 20.4579766 -19.64912883 15.12368818 -18 9 C-14.0301417 2.32400035 -8.03329843 -1.90262331 0 0 Z " fill="#FDFDFD" transform="translate(63,38)"/>
<path d="M0 0 C11.8622204 -1.03316113 20.09826098 1.83917054 29.375 9.25 C35.9352308 15.41388352 40.7378897 23.81021613 41.1953125 32.8671875 C41.18221369 34.20326637 41.15865184 35.53928077 41.125 36.875 C41.11597656 37.56335938 41.10695312 38.25171875 41.09765625 38.9609375 C41.07432513 40.64077838 41.03846326 42.32043746 41 44 C44.63 44 48.26 44 52 44 C52.72795155 48.20594226 53.04973814 50.80104745 52 55 C48.37 55 44.74 55 41 55 C41 57.31 41 59.62 41 62 C36.45699604 62 33.57488202 58.96443877 30.08984375 56.28710938 C26.08274592 53.35451436 22.93308675 52.34431443 18 52 C18 49.36 18 46.72 18 44 C14.04 44 10.08 44 6 44 C6 40.04 6 36.08 6 32 C9.3 32 12.6 32 16 32 C15.59995382 29.04021368 15.59995382 29.04021368 14 26 C11.44526606 24.57664824 8.81962538 23.74752859 6 23 C6.09765625 20.98177083 6.1953125 18.96354167 6.29296875 16.9453125 C6.19628906 16.30335937 6.09960938 15.66140625 6 15 C5.01 14.34 4.02 13.68 3 13 C3.33 11.68 3.66 10.36 4 9 C11.48610221 8.18629324 17.20578021 11.07809616 23.08984375 15.609375 C27.43561455 19.61520179 29.3939464 23.33157553 31 29 C31 29.99 31 30.98 31 32 C32.32 32 33.64 32 35 32 C33.09646269 23.50729506 30.38252159 16.7082875 23.5625 10.9375 C18.58844225 7.80333606 12.60503771 6.57163588 7 5 C5.81277344 4.65582031 5.81277344 4.65582031 4.6015625 4.3046875 C3.07025154 3.86091983 1.53563912 3.42855045 0 3 C0 2.01 0 1.02 0 0 Z " fill="#A0A0A0" transform="translate(86,36)"/>
<path d="M0 0 C7.48610221 -0.81370676 13.20578021 2.07809616 19.08984375 6.609375 C23.88274643 11.02735718 26.67772861 15.71525538 27.171875 22.28515625 C27.18531953 24.19091808 27.10195073 26.09691962 27 28 C25.68 28 24.36 28 23 28 C22.67 26.68 22.34 25.36 22 24 C18.72724974 24 16.153368 24.29925156 13 25 C12.67 23.741875 12.34 22.48375 12 21.1875 C11.02338139 18.49584383 10.49505128 17.29976478 8.01953125 15.80078125 C5.57347894 14.87522247 5.57347894 14.87522247 2 14 C2.09765625 11.98177083 2.1953125 9.96354167 2.29296875 7.9453125 C2.19628906 7.30335937 2.09960938 6.66140625 2 6 C1.01 5.34 0.02 4.68 -1 4 C-0.67 2.68 -0.34 1.36 0 0 Z " fill="#A3A3A3" transform="translate(90,45)"/>
<path d="M0 0 C11.8622204 -1.03316113 20.09826098 1.83917054 29.375 9.25 C35.57526675 15.0756673 40.79843149 23.41367266 41.109375 32.03125 C41.1233616 35.02438145 41.08713769 38.00827278 41 41 C39.68 41 38.36 41 37 41 C36.82984375 40.01 36.6596875 39.02 36.484375 38 C34.5627861 27.33470899 32.19569989 18.24251529 23.5625 10.9375 C18.58844225 7.80333606 12.60503771 6.57163588 7 5 C5.81277344 4.65582031 5.81277344 4.65582031 4.6015625 4.3046875 C3.07025154 3.86091983 1.53563912 3.42855045 0 3 C0 2.01 0 1.02 0 0 Z " fill="#F8F8F8" transform="translate(86,36)"/>
<path d="M0 0 C3.96 0 7.92 0 12 0 C12 3.96 12 7.92 12 12 C8.37 12 4.74 12 1 12 C1.020625 13.629375 1.04125 15.25875 1.0625 16.9375 C1.08386068 18.62499341 1.07205511 20.31391034 1 22 C0 23 0 23 -2.50390625 23.09765625 C-5.3359375 23.06510417 -8.16796875 23.03255208 -11 23 C-11 19.37 -11 15.74 -11 12 C-5.555 11.505 -5.555 11.505 0 11 C0 7.37 0 3.74 0 0 Z " fill="#A3A3A3" transform="translate(161,114)"/>
<path d="M0 0 C3.96 0 7.92 0 12 0 C12 3.96 12 7.92 12 12 C8.37 12 4.74 12 1 12 C1.020625 13.629375 1.04125 15.25875 1.0625 16.9375 C1.08386068 18.62499341 1.07205511 20.31391034 1 22 C0 23 0 23 -2.50390625 23.09765625 C-5.3359375 23.06510417 -8.16796875 23.03255208 -11 23 C-11 19.37 -11 15.74 -11 12 C-5.555 11.505 -5.555 11.505 0 11 C0 7.37 0 3.74 0 0 Z " fill="#A3A3A3" transform="translate(161,91)"/>
<path d="M0 0 C3.96 0 7.92 0 12 0 C12 3.96 12 7.92 12 12 C8.37 12 4.74 12 1 12 C1.020625 13.629375 1.04125 15.25875 1.0625 16.9375 C1.08386068 18.62499341 1.07205511 20.31391034 1 22 C0 23 0 23 -2.50390625 23.09765625 C-5.3359375 23.06510417 -8.16796875 23.03255208 -11 23 C-11 19.37 -11 15.74 -11 12 C-5.555 11.505 -5.555 11.505 0 11 C0 7.37 0 3.74 0 0 Z " fill="#A3A3A3" transform="translate(161,68)"/>
<path d="M0 0 C3.96 0 7.92 0 12 0 C12 3.96 12 7.92 12 12 C8.37 12 4.74 12 1 12 C1.020625 13.629375 1.04125 15.25875 1.0625 16.9375 C1.08386068 18.62499341 1.07205511 20.31391034 1 22 C0 23 0 23 -2.50390625 23.09765625 C-5.3359375 23.06510417 -8.16796875 23.03255208 -11 23 C-11 19.37 -11 15.74 -11 12 C-5.555 11.505 -5.555 11.505 0 11 C0 7.37 0 3.74 0 0 Z " fill="#A3A3A3" transform="translate(161,45)"/>
<path d="M0 0 C3.96 0 7.92 0 12 0 C12 3.96 12 7.92 12 12 C8.37 12 4.74 12 1 12 C1.020625 13.629375 1.04125 15.25875 1.0625 16.9375 C1.08386068 18.62499341 1.07205511 20.31391034 1 22 C0 23 0 23 -2.50390625 23.09765625 C-5.3359375 23.06510417 -8.16796875 23.03255208 -11 23 C-11 19.37 -11 15.74 -11 12 C-5.555 11.505 -5.555 11.505 0 11 C0 7.37 0 3.74 0 0 Z " fill="#A3A3A3" transform="translate(161,22)"/>
<path d="M0 0 C3.96 0 7.92 0 12 0 C12 3.63 12 7.26 12 11 C8.37 11 4.74 11 1 11 C1.020625 12.629375 1.04125 14.25875 1.0625 15.9375 C1.08386068 17.62499341 1.07205511 19.31391034 1 21 C0 22 0 22 -2.50390625 22.09765625 C-5.3359375 22.06510417 -8.16796875 22.03255208 -11 22 C-11 18.37 -11 14.74 -11 11 C-5.555 10.505 -5.555 10.505 0 10 C0 6.7 0 3.4 0 0 Z " fill="#A3A3A3" transform="translate(161,0)"/>
<path d="M0 0 C3.63 0 7.26 0 11 0 C11 3.63 11 7.26 11 11 C7.04 11 3.08 11 -1 11 C-0.67 7.37 -0.34 3.74 0 0 Z M-12 11 C-8.37 11 -4.74 11 -1 11 C-0.12109375 19.49609375 -0.12109375 19.49609375 0 22 C-1 23 -1 23 -3.50390625 23.09765625 C-6.3359375 23.06510417 -9.16796875 23.03255208 -12 23 C-12 19.04 -12 15.08 -12 11 Z " fill="#989898" transform="translate(162,34)"/>
<path d="M0 0 C7.48610221 -0.81370676 13.20578021 2.07809616 19.08984375 6.609375 C23.88274643 11.02735718 26.67772861 15.71525538 27.171875 22.28515625 C27.18531953 24.19091808 27.10195073 26.09691962 27 28 C25.68 28 24.36 28 23 28 C22.82984375 27.27554688 22.6596875 26.55109375 22.484375 25.8046875 C20.73849862 18.83975514 19.0572852 13.60987761 13.4375 8.8125 C8.81451671 6.37492699 4.06828725 5.19041622 -1 4 C-0.67 2.68 -0.34 1.36 0 0 Z " fill="#F8F8F8" transform="translate(90,45)"/>
<path d="M0 0 C3.96 0 7.92 0 12 0 C12 1.98 12 3.96 12 6 C13.65 6 15.3 6 17 6 C17 6.33 17 6.66 17 7 C16.154375 7.20625 15.30875 7.4125 14.4375 7.625 C11.18481425 8.9260743 9.97773427 9.83237337 7.5625 12.1875 C4.728521 14.76384455 4.33104176 14.99448264 0.25 15.0625 C-2.77565528 14.07334347 -4.14077085 13.51542767 -6 11 C-4.02 11 -2.04 11 0 11 C0 7.37 0 3.74 0 0 Z " fill="#989898" transform="translate(92,80)"/>
<path d="M0 0 C4.29 0 8.58 0 13 0 C12.67 3.96 12.34 7.92 12 12 C8.04 12 4.08 12 0 12 C0 8.04 0 4.08 0 0 Z " fill="#A3A3A3" transform="translate(23,68)"/>
<path d="M0 0 C3.96 0 7.92 0 12 0 C12 3.96 12 7.92 12 12 C8.04 12 4.08 12 0 12 C0 8.04 0 4.08 0 0 Z " fill="#A3A3A3" transform="translate(69,114)"/>
<path d="M0 0 C3.96 0 7.92 0 12 0 C12 3.96 12 7.92 12 12 C8.04 12 4.08 12 0 12 C0 8.04 0 4.08 0 0 Z " fill="#A3A3A3" transform="translate(46,114)"/>
<path d="M0 0 C3.96 0 7.92 0 12 0 C12 3.96 12 7.92 12 12 C8.04 12 4.08 12 0 12 C0 8.04 0 4.08 0 0 Z " fill="#A3A3A3" transform="translate(115,22)"/>
<path d="M0 0 C3.96 0 7.92 0 12 0 C12 3.96 12 7.92 12 12 C8.04 12 4.08 12 0 12 C0 8.04 0 4.08 0 0 Z " fill="#A3A3A3" transform="translate(92,22)"/>
<path d="M0 0 C3.96 0 7.92 0 12 0 C12 3.96 12 7.92 12 12 C8.04 12 4.08 12 0 12 C0 8.04 0 4.08 0 0 Z " fill="#A3A3A3" transform="translate(69,22)"/>
<path d="M0 0 C3.96 0 7.92 0 12 0 C12 3.96 12 7.92 12 12 C3.50390625 12.09765625 3.50390625 12.09765625 1 12 C0 11 0 11 -0.09765625 8.49609375 C-0.06510417 5.6640625 -0.03255208 2.83203125 0 0 Z " fill="#A3A3A3" transform="translate(138,114)"/>
<path d="M0 0 C3.96 0 7.92 0 12 0 C12 3.96 12 7.92 12 12 C3.50390625 12.09765625 3.50390625 12.09765625 1 12 C0 11 0 11 -0.09765625 8.49609375 C-0.06510417 5.6640625 -0.03255208 2.83203125 0 0 Z " fill="#A3A3A3" transform="translate(138,91)"/>
<path d="M0 0 C3.96 0 7.92 0 12 0 C12 3.96 12 7.92 12 12 C3.50390625 12.09765625 3.50390625 12.09765625 1 12 C0 11 0 11 -0.09765625 8.49609375 C-0.06510417 5.6640625 -0.03255208 2.83203125 0 0 Z " fill="#A3A3A3" transform="translate(138,68)"/>
<path d="M0 0 C3.96 0 7.92 0 12 0 C12 3.96 12 7.92 12 12 C3.50390625 12.09765625 3.50390625 12.09765625 1 12 C0 11 0 11 -0.09765625 8.49609375 C-0.06510417 5.6640625 -0.03255208 2.83203125 0 0 Z " fill="#A3A3A3" transform="translate(138,45)"/>
<path d="M0 0 C3.96 0 7.92 0 12 0 C12 3.96 12 7.92 12 12 C3.50390625 12.09765625 3.50390625 12.09765625 1 12 C0 11 0 11 -0.09765625 8.49609375 C-0.06510417 5.6640625 -0.03255208 2.83203125 0 0 Z " fill="#A3A3A3" transform="translate(138,22)"/>
<path d="M0 0 C4.29 0 8.58 0 13 0 C12.67 3.63 12.34 7.26 12 11 C8.04 11 4.08 11 0 11 C0 7.37 0 3.74 0 0 Z " fill="#A3A3A3" transform="translate(23,137)"/>
<path d="M0 0 C3.96 0 7.92 0 12 0 C12 3.63 12 7.26 12 11 C8.04 11 4.08 11 0 11 C0 7.37 0 3.74 0 0 Z " fill="#A2A2A2" transform="translate(161,137)"/>
<path d="M0 0 C3.96 0 7.92 0 12 0 C12 3.63 12 7.26 12 11 C8.04 11 4.08 11 0 11 C0 7.37 0 3.74 0 0 Z " fill="#A3A3A3" transform="translate(138,137)"/>
<path d="M0 0 C3.96 0 7.92 0 12 0 C12 3.63 12 7.26 12 11 C8.04 11 4.08 11 0 11 C0 7.37 0 3.74 0 0 Z " fill="#A3A3A3" transform="translate(69,137)"/>
<path d="M0 0 C3.96 0 7.92 0 12 0 C12 3.63 12 7.26 12 11 C8.04 11 4.08 11 0 11 C0 7.37 0 3.74 0 0 Z " fill="#A3A3A3" transform="translate(46,137)"/>
<path d="M0 0 C3.63 0 7.26 0 11 0 C11 3.96 11 7.92 11 12 C7.37 12 3.74 12 0 12 C0 8.04 0 4.08 0 0 Z " fill="#A3A3A3" transform="translate(0,114)"/>
<path d="M0 0 C3.96 0 7.92 0 12 0 C12 3.63 12 7.26 12 11 C8.04 11 4.08 11 0 11 C0 7.37 0 3.74 0 0 Z " fill="#989898" transform="translate(46,103)"/>
<path d="M0 0 C3.63 0 7.26 0 11 0 C11 3.96 11 7.92 11 12 C7.37 12 3.74 12 0 12 C0 8.04 0 4.08 0 0 Z " fill="#A3A3A3" transform="translate(0,91)"/>
<path d="M0 0 C3.63 0 7.26 0 11 0 C11 3.96 11 7.92 11 12 C7.37 12 3.74 12 0 12 C0 8.04 0 4.08 0 0 Z " fill="#989898" transform="translate(81,68)"/>
<path d="M0 0 C3.63 0 7.26 0 11 0 C11 3.96 11 7.92 11 12 C7.37 12 3.74 12 0 12 C0 8.04 0 4.08 0 0 Z " fill="#A3A3A3" transform="translate(0,68)"/>
<path d="M0 0 C3.63 0 7.26 0 11 0 C11 3.96 11 7.92 11 12 C7.37 12 3.74 12 0 12 C0 8.04 0 4.08 0 0 Z " fill="#A3A3A3" transform="translate(0,45)"/>
<path d="M0 0 C3.63 0 7.26 0 11 0 C11 3.96 11 7.92 11 12 C7.37 12 3.74 12 0 12 C0 8.04 0 4.08 0 0 Z " fill="#A3A3A3" transform="translate(0,22)"/>
<path d="M0 0 C3.96 0 7.92 0 12 0 C12 3.63 12 7.26 12 11 C8.04 11 4.08 11 0 11 C0 7.37 0 3.74 0 0 Z " fill="#989898" transform="translate(92,11)"/>
<path d="M0 0 C3.96 0 7.92 0 12 0 C12 3.63 12 7.26 12 11 C8.04 11 4.08 11 0 11 C0 7.37 0 3.74 0 0 Z " fill="#989898" transform="translate(46,11)"/>
<path d="M0 0 C2.57161458 0.03255208 5.14322917 0.06510417 7.71484375 0.09765625 C7.71484375 4.05765625 7.71484375 8.01765625 7.71484375 12.09765625 C4.08484375 12.09765625 0.45484375 12.09765625 -3.28515625 12.09765625 C-3.3828125 3.6015625 -3.3828125 3.6015625 -3.28515625 1.09765625 C-2.28515625 0.09765625 -2.28515625 0.09765625 0 0 Z " fill="#989898" transform="translate(38.28515625,113.90234375)"/>
<path d="M0 0 C2.57161458 0.03255208 5.14322917 0.06510417 7.71484375 0.09765625 C7.71484375 4.05765625 7.71484375 8.01765625 7.71484375 12.09765625 C4.08484375 12.09765625 0.45484375 12.09765625 -3.28515625 12.09765625 C-3.3828125 3.6015625 -3.3828125 3.6015625 -3.28515625 1.09765625 C-2.28515625 0.09765625 -2.28515625 0.09765625 0 0 Z " fill="#989898" transform="translate(38.28515625,90.90234375)"/>
<path d="M0 0 C2.57161458 0.03255208 5.14322917 0.06510417 7.71484375 0.09765625 C7.71484375 4.05765625 7.71484375 8.01765625 7.71484375 12.09765625 C4.08484375 12.09765625 0.45484375 12.09765625 -3.28515625 12.09765625 C-3.3828125 3.6015625 -3.3828125 3.6015625 -3.28515625 1.09765625 C-2.28515625 0.09765625 -2.28515625 0.09765625 0 0 Z " fill="#989898" transform="translate(38.28515625,67.90234375)"/>
<path d="M0 0 C2.57161458 0.03255208 5.14322917 0.06510417 7.71484375 0.09765625 C7.71484375 4.05765625 7.71484375 8.01765625 7.71484375 12.09765625 C4.08484375 12.09765625 0.45484375 12.09765625 -3.28515625 12.09765625 C-3.3828125 3.6015625 -3.3828125 3.6015625 -3.28515625 1.09765625 C-2.28515625 0.09765625 -2.28515625 0.09765625 0 0 Z " fill="#989898" transform="translate(38.28515625,21.90234375)"/>
<path d="M0 0 C3.96 0 7.92 0 12 0 C12 3.63 12 7.26 12 11 C8.04 11 4.08 11 0 11 C0 7.37 0 3.74 0 0 Z " fill="#989898" transform="translate(23,57)"/>
<path d="M0 0 C3.96 0 7.92 0 12 0 C12 3.63 12 7.26 12 11 C8.04 11 4.08 11 0 11 C0 7.37 0 3.74 0 0 Z " fill="#989898" transform="translate(23,11)"/>
<path d="M0 0 C3.63 0 7.26 0 11 0 C11.72795155 4.20594226 12.04973814 6.80104745 11 11 C7.37 11 3.74 11 0 11 C0 7.37 0 3.74 0 0 Z " fill="#A3A3A3" transform="translate(127,126)"/>
<path d="M0 0 C3.63 0 7.26 0 11 0 C11.72795155 4.20594226 12.04973814 6.80104745 11 11 C7.37 11 3.74 11 0 11 C0 7.37 0 3.74 0 0 Z " fill="#A3A3A3" transform="translate(127,34)"/>
<path d="M0 0 C3.63 0 7.26 0 11 0 C11.72795155 4.20594226 12.04973814 6.80104745 11 11 C7.37 11 3.74 11 0 11 C0 7.37 0 3.74 0 0 Z " fill="#A3A3A3" transform="translate(127,11)"/>
<path d="M0 0 C2.64 0 5.28 0 8 0 C8 1.32 8 2.64 8 4 C9.65 4.33 11.3 4.66 13 5 C12.01 5.495 12.01 5.495 11 6 C11 6.99 11 7.98 11 9 C11.66 9.33 12.32 9.66 13 10 C12.34 10 11.68 10 11 10 C11 10.66 11 11.32 11 12 C7.37 12 3.74 12 0 12 C0 8.04 0 4.08 0 0 Z " fill="#989898" transform="translate(81,45)"/>
<path d="M0 0 C3.63 0 7.26 0 11 0 C11.87890625 7.71484375 11.87890625 7.71484375 12 10 C11 11 11 11 8.49609375 11.09765625 C5.6640625 11.06510417 2.83203125 11.03255208 0 11 C0 7.37 0 3.74 0 0 Z " fill="#989898" transform="translate(150,0)"/>
<path d="M0 0 C3.63 0 7.26 0 11 0 C11 3.63 11 7.26 11 11 C7.37 11 3.74 11 0 11 C0 7.37 0 3.74 0 0 Z " fill="#989898" transform="translate(104,137)"/>
<path d="M0 0 C3.63 0 7.26 0 11 0 C11 3.63 11 7.26 11 11 C7.37 11 3.74 11 0 11 C0 7.37 0 3.74 0 0 Z " fill="#A3A3A3" transform="translate(0,137)"/>
<path d="M0 0 C3.63 0 7.26 0 11 0 C11 3.63 11 7.26 11 11 C7.37 11 3.74 11 0 11 C0 7.37 0 3.74 0 0 Z " fill="#A3A3A3" transform="translate(81,126)"/>
<path d="M0 0 C3.63 0 7.26 0 11 0 C11 3.63 11 7.26 11 11 C7.37 11 3.74 11 0 11 C0 7.37 0 3.74 0 0 Z " fill="#A3A3A3" transform="translate(58,126)"/>
<path d="M0 0 C3.63 0 7.26 0 11 0 C11 3.63 11 7.26 11 11 C7.37 11 3.74 11 0 11 C0 7.37 0 3.74 0 0 Z " fill="#A3A3A3" transform="translate(12,126)"/>
<path d="M0 0 C3.63 0 7.26 0 11 0 C11 3.63 11 7.26 11 11 C7.37 11 3.74 11 0 11 C0 7.37 0 3.74 0 0 Z " fill="#A3A3A3" transform="translate(58,103)"/>
<path d="M0 0 C3.63 0 7.26 0 11 0 C11 3.63 11 7.26 11 11 C7.37 11 3.74 11 0 11 C0 7.37 0 3.74 0 0 Z " fill="#A3A3A3" transform="translate(12,103)"/>
<path d="M0 0 C3.63 0 7.26 0 11 0 C11 3.63 11 7.26 11 11 C7.37 11 3.74 11 0 11 C0 7.37 0 3.74 0 0 Z " fill="#A3A3A3" transform="translate(12,80)"/>
<path d="M0 0 C3.63 0 7.26 0 11 0 C11 3.63 11 7.26 11 11 C7.37 11 3.74 11 0 11 C0 7.37 0 3.74 0 0 Z " fill="#A3A3A3" transform="translate(12,57)"/>
<path d="M0 0 C2.57161458 0.03255208 5.14322917 0.06510417 7.71484375 0.09765625 C7.38484375 4.05765625 7.05484375 8.01765625 6.71484375 12.09765625 C3.41484375 12.09765625 0.11484375 12.09765625 -3.28515625 12.09765625 C-3.31202904 10.28523573 -3.3314934 8.47270392 -3.34765625 6.66015625 C-3.35925781 5.65082031 -3.37085938 4.64148437 -3.3828125 3.6015625 C-3.25661147 0.36576812 -3.22349358 0.13775614 0 0 Z " fill="#989898" transform="translate(38.28515625,44.90234375)"/>
<path d="M0 0 C3.63 0 7.26 0 11 0 C11 3.63 11 7.26 11 11 C7.37 11 3.74 11 0 11 C0 7.37 0 3.74 0 0 Z " fill="#A3A3A3" transform="translate(12,34)"/>
<path d="M0 0 C3.63 0 7.26 0 11 0 C11 3.63 11 7.26 11 11 C7.37 11 3.74 11 0 11 C0 7.37 0 3.74 0 0 Z " fill="#A3A3A3" transform="translate(104,11)"/>
<path d="M0 0 C3.63 0 7.26 0 11 0 C11 3.63 11 7.26 11 11 C7.37 11 3.74 11 0 11 C0 7.37 0 3.74 0 0 Z " fill="#A3A3A3" transform="translate(58,11)"/>
<path d="M0 0 C3.63 0 7.26 0 11 0 C11 3.63 11 7.26 11 11 C7.37 11 3.74 11 0 11 C0 7.37 0 3.74 0 0 Z " fill="#A3A3A3" transform="translate(12,11)"/>
<path d="M0 0 C3.63 0 7.26 0 11 0 C11 3.63 11 7.26 11 11 C7.37 11 3.74 11 0 11 C0 7.37 0 3.74 0 0 Z " fill="#989898" transform="translate(104,0)"/>
<path d="M0 0 C3.63 0 7.26 0 11 0 C11 3.63 11 7.26 11 11 C7.37 11 3.74 11 0 11 C0 7.37 0 3.74 0 0 Z " fill="#989898" transform="translate(81,0)"/>
<path d="M0 0 C3.63 0 7.26 0 11 0 C11 3.63 11 7.26 11 11 C7.37 11 3.74 11 0 11 C0 7.37 0 3.74 0 0 Z " fill="#989898" transform="translate(58,0)"/>
<path d="M0 0 C3.63 0 7.26 0 11 0 C11 3.63 11 7.26 11 11 C7.37 11 3.74 11 0 11 C0 7.37 0 3.74 0 0 Z " fill="#989898" transform="translate(35,0)"/>
<path d="M0 0 C3.63 0 7.26 0 11 0 C11 3.63 11 7.26 11 11 C7.37 11 3.74 11 0 11 C0 7.37 0 3.74 0 0 Z " fill="#A3A3A3" transform="translate(0,0)"/>
<path d="M0 0 C2.57161458 0.03255208 5.14322917 0.06510417 7.71484375 0.09765625 C7.71484375 3.72765625 7.71484375 7.35765625 7.71484375 11.09765625 C4.08484375 11.09765625 0.45484375 11.09765625 -3.28515625 11.09765625 C-3.3828125 3.3828125 -3.3828125 3.3828125 -3.28515625 1.09765625 C-2.28515625 0.09765625 -2.28515625 0.09765625 0 0 Z " fill="#989898" transform="translate(38.28515625,136.90234375)"/>
<path d="M0 0 C0.33 0.66 0.66 1.32 1 2 C3.02463255 2.65213292 3.02463255 2.65213292 5 3 C5.12375 3.61875 5.2475 4.2375 5.375 4.875 C5.87197356 7.19120832 5.87197356 7.19120832 8 9 C7.67 10.65 7.34 12.3 7 14 C3.37 14 -0.26 14 -4 14 C-4.29296875 7.1640625 -4.29296875 7.1640625 -4 5 C-3.01 4.34 -2.02 3.68 -1 3 C-0.67 2.01 -0.34 1.02 0 0 Z " fill="#989898" transform="translate(108,66)"/>
<path d="M0 0 C6.93 0.495 6.93 0.495 14 1 C14 1.33 14 1.66 14 2 C11.03 2 8.06 2 5 2 C5.33 2.99 5.66 3.98 6 5 C8.97 5.495 8.97 5.495 12 6 C11.67 7.65 11.34 9.3 11 11 C8.00468461 11.99843846 6.82744268 12.00732761 3.8125 11.5625 C2.554375 11.376875 1.29625 11.19125 0 11 C0 7.37 0 3.74 0 0 Z " fill="#A7A7A7" transform="translate(81,34)"/>
<path d="M0 0 C3.96 0.33 7.92 0.66 12 1 C11.67 3.64 11.34 6.28 11 9 C7.37 9 3.74 9 0 9 C0 6.03 0 3.06 0 0 Z " fill="#999999" transform="translate(104,117)"/>
<path d="M0 0 C3.43462183 -0.42056594 5.99485082 -0.63981991 8.98828125 1.265625 C13.59950361 5.19900722 13.59950361 5.19900722 15 8 C15.04022391 10.3329866 15.04320247 12.66706666 15 15 C13.68 15 12.36 15 11 15 C10.67 13.741875 10.34 12.48375 10 11.1875 C9.02338139 8.49584383 8.49505128 7.29976478 6.01953125 5.80078125 C3.57347894 4.87522247 3.57347894 4.87522247 0 4 C0 2.68 0 1.36 0 0 Z " fill="#F9F9F9" transform="translate(92,55)"/>
<path d="M0 0 C3.63 0 7.26 0 11 0 C11 2.97 11 5.94 11 9 C7.37 8.67 3.74 8.34 0 8 C0 5.36 0 2.72 0 0 Z " fill="#A6A6A6" transform="translate(104,80)"/>
<path d="M0 0 C3.63 0 7.26 0 11 0 C11 3.63 11 7.26 11 11 C7.23801156 9.11900578 3.64081132 7.10046807 0 5 C0 3.35 0 1.7 0 0 Z " fill="#A4A4A4" transform="translate(104,34)"/>
<path d="M0 0 C4.11345859 0.46743848 7.11139055 0.88918982 10 4 C10 5.65 10 7.3 10 9 C6.7 9 3.4 9 0 9 C0 6.03 0 3.06 0 0 Z " fill="#9A9A9A" transform="translate(92,59)"/>
<path d="M0 0 C1.32 0 2.64 0 4 0 C4 3.63 4 7.26 4 11 C0.37 11 -3.26 11 -7 11 C-5.76632058 7.29896173 -3.73190399 5.73190399 -1 3 C-0.67 2.01 -0.34 1.02 0 0 Z " fill="#989898" transform="translate(77,57)"/>
<path d="M0 0 C3.63 0 7.26 0 11 0 C11 3.3 11 6.6 11 10 C10.13375 9.195625 9.2675 8.39125 8.375 7.5625 C5.37123907 5.03075864 2.96796738 4.28342624 -1 4 C-0.67 2.68 -0.34 1.36 0 0 Z " fill="#A5A5A5" transform="translate(58,34)"/>
<path d="M0 0 C7.75 5.5 7.75 5.5 10 10 C6.7 10 3.4 10 0 10 C0 6.7 0 3.4 0 0 Z " fill="#A2A2A2" transform="translate(69,93)"/>
<path d="M0 0 C2.97 0 5.94 0 9 0 C9 2.31 9 4.62 9 7 C5.60406522 7 4.93380119 6.47834052 2.3125 4.5 C1.68988281 4.0359375 1.06726563 3.571875 0.42578125 3.09375 C-0.04472656 2.7328125 -0.51523438 2.371875 -1 2 C-0.67 1.34 -0.34 0.68 0 0 Z " fill="#A3A3A3" transform="translate(118,91)"/>
<path d="M0 0 C4.18199633 2.09099816 4.99659367 2.99318733 7 7 C7 7.66 7 8.32 7 9 C4.69 9 2.38 9 0 9 C0 6.03 0 3.06 0 0 Z " fill="#A4A4A4" transform="translate(58,82)"/>
<path d="M0 0 C1.43861294 0.08746284 2.87597508 0.19565348 4.3125 0.3125 C5.11300781 0.37050781 5.91351563 0.42851563 6.73828125 0.48828125 C9.36272334 1.08206694 10.30820672 1.95780294 12 4 C7.6835078 4.76173392 4.25566547 5.16063604 0 4 C0 2.68 0 1.36 0 0 Z " fill="#959595" transform="translate(92,41)"/>
<path d="M0 0 C2.31 0 4.62 0 7 0 C7 2.64 7 5.28 7 8 C3.83282717 6.41641358 2.26731682 5.54736301 0.6875 2.3125 C0.460625 1.549375 0.23375 0.78625 0 0 Z " fill="#979797" transform="translate(74,80)"/>
<path d="M0 0 C1.08667969 0.29197266 1.08667969 0.29197266 2.1953125 0.58984375 C2.74960938 0.74582031 3.30390625 0.90179688 3.875 1.0625 C1.28712273 3.65037727 -0.54507861 3.68959152 -4.125 4.0625 C-4.785 3.7325 -5.445 3.4025 -6.125 3.0625 C-6.125 2.0725 -6.125 1.0825 -6.125 0.0625 C-3.57797384 -1.21101308 -2.6967055 -0.73941925 0 0 Z " fill="#A5A5A5" transform="translate(98.125,50.9375)"/>
<path d="M0 0 C1.65 0 3.3 0 5 0 C5 0.99 5 1.98 5 3 C2.69 3.33 0.38 3.66 -2 4 C-1.34 2.68 -0.68 1.36 0 0 Z " fill="#A5A5A5" transform="translate(93,91)"/>
<path d="M0 0 C2.89932357 2.39509338 3.50168276 4.31245243 4 8 C2.68 8 1.36 8 0 8 C0 5.36 0 2.72 0 0 Z " fill="#989898" transform="translate(46,60)"/>
</svg>
